PathFileType	4	(X/Y/Z)	C:\Users\WrightLab\Desktop\Jo\P5V124.trc
DataRate	CameraRate	NumFrames	NumMarkers	Units	OrigDataRate	OrigDataStartFrame	OrigNumFrames
100.00	100.00	       36	19	mm	100.00	1	       624
Frame#	Time	Headset_Front			Headset_Back			Headset_Left			Headset_Right			Left_Shoulder			Right_Shoulder			Sternum			C7			Left Elbow			Right Elbow			Left Wrist			Right Wrist			Left ASIS			Right ASIS			S2			Left Knee			Right Knee			Left Ankle			Right Ankle			
		X1	Y1	Z1	X2	Y2	Z2	X3	Y3	Z3	X4	Y4	Z4	X5	Y5	Z5	X6	Y6	Z6	X7	Y7	Z7	X8	Y8	Z8	X9	Y9	Z9	X10	Y10	Z10	X11	Y11	Z11	X12	Y12	Z12	X13	Y13	Z13	X14	Y14	Z14	X15	Y15	Z15	X16	Y16	Z16	X17	Y17	Z17	X18	Y18	Z18	X19	Y19	Z19	

1	0.000																												-410.15631	1182.07385	-1181.07947	203.71033	962.55286	-1145.12830	-349.45462	1007.81836	-1014.32227	21.67041	929.66760	-1075.73657	-241.34404	952.01428	-1043.92395				75.41764	485.30933	-1149.98669	-288.78174	475.86246	-1075.89087				-294.33273	75.63814	-1162.68506	
2	0.010																												-410.20554	1182.11401	-1180.84326	203.53979	962.42566	-1145.48645	-349.60919	1007.70868	-1014.41223	21.65028	929.63055	-1075.73596	-241.20274	951.59003	-1043.13647				74.84665	485.05969	-1149.78772	-288.77734	475.86508	-1075.88916				-294.32986	75.64079	-1162.68506	
3	0.020																												-410.31219	1182.14343	-1180.83264	203.50183	962.40924	-1145.48572	-349.79382	1007.37439	-1013.65076	21.39829	929.86627	-1075.07141	-241.21445	951.32245	-1042.09644				73.89417	485.30978	-1149.43787	-288.87338	475.76874	-1075.80859				-294.33105	75.64516	-1162.68591	
4	0.030																												-410.35519	1182.22058	-1180.59546	203.47118	962.33301	-1145.45276	-349.66467	1007.54401	-1013.98462	21.20010	929.66852	-1075.05176	-241.20770	951.32178	-1042.08813				73.75178	485.47852	-1149.16650	-288.85800	475.77390	-1075.80200				-294.34335	75.66563	-1162.69080	
5	0.040																												-410.46429	1182.19580	-1180.37354	203.16667	961.78436	-1145.18176	-349.75507	1007.46649	-1013.65955	20.85969	929.47522	-1075.04187	-241.18481	951.31677	-1042.06018				73.68240	485.63910	-1148.80261	-288.87302	475.76895	-1075.80847				-294.33792	75.65996	-1162.68921	
6	0.050																												-410.59937	1182.08643	-1180.00330	203.13649	961.76337	-1145.17712	-350.18906	1006.99359	-1013.23352	20.52043	928.89526	-1074.65796	-241.21176	951.68500	-1041.17725				73.69303	485.67599	-1148.44434	-288.85397	475.77493	-1075.80029				-294.34692	75.67416	-1162.69250	
7	0.060																												-410.71292	1182.05066	-1179.88293	203.11542	961.73962	-1145.16919	-349.90253	1007.02179	-1013.24213	20.50239	928.87488	-1074.66028	-241.21011	951.67120	-1041.17480				73.67738	485.67715	-1148.44922	-288.85553	475.77490	-1075.80103				-294.35318	75.68297	-1162.69470	
8	0.070																												-410.76855	1182.06628	-1179.32324	203.16508	961.70868	-1144.75415	-350.14117	1006.78986	-1012.67700	20.49742	928.84863	-1074.65637	-241.20508	951.62561	-1041.16724				73.34880	485.25998	-1148.23047	-288.87268	475.76917	-1075.80835				-294.35129	75.68578	-1162.69495	
9	0.080																												-410.78525	1182.14819	-1178.60071	202.42889	961.57275	-1144.47705	-350.37503	1006.56158	-1012.66125	20.48686	928.83661	-1074.65771	-241.13068	951.69769	-1040.00891				73.40497	485.32141	-1147.87231	-289.26849	476.00818	-1075.41748				-294.35150	75.69659	-1162.69666	
10	0.090																												-411.19760	1182.33142	-1178.29370	202.55693	961.61121	-1143.38477	-350.36304	1006.51855	-1012.65234	20.08330	928.91565	-1073.97266	-241.55156	951.30957	-1040.26172				73.07968	485.49139	-1147.39185	-289.12512	476.16696	-1075.12170				-294.35385	75.69720	-1162.69702	
11	0.100																												-412.15402	1182.63098	-1178.04871	202.50391	961.56189	-1143.37012	-350.31335	1006.11267	-1012.01117	20.46901	929.06006	-1073.39417	-241.65919	951.77026	-1039.65112				73.07893	485.49182	-1147.39233	-289.47464	476.25494	-1075.17224				-294.86230	76.41179	-1162.77014	
12	0.110																												-412.03900	1182.23413	-1177.36243	202.45660	961.52124	-1143.35876	-350.49921	1005.98718	-1011.66656	19.96353	928.43597	-1072.76465	-242.06221	951.71039	-1039.86523				72.84059	485.40561	-1147.18921	-289.73868	476.77502	-1074.98364				-294.86411	76.40439	-1162.76917	
13	0.120																												-412.54480	1182.32275	-1176.78625	201.69402	961.40826	-1142.39905	-350.41779	1005.62189	-1011.38452	20.13462	928.46631	-1072.53479	-241.83891	951.08539	-1038.55652				72.83674	485.40671	-1147.19141	-289.40756	476.33862	-1074.93799				-294.36777	75.69009	-1162.69775	
14	0.130																												-412.05936	1181.95911	-1175.49072	201.64545	961.49274	-1142.00610	-350.63876	1005.10577	-1011.05920	20.39632	928.50928	-1072.20520	-242.86827	950.66681	-1039.10706				72.82126	485.39697	-1147.19568	-289.43600	476.53845	-1074.19348				-294.87256	76.40929	-1162.77112	
15	0.140																												-412.18033	1182.02942	-1174.96826	201.55775	961.43872	-1141.99597	-350.54736	1005.09039	-1010.88007	20.40630	928.20056	-1071.42957	-242.92604	951.29468	-1036.34277				72.80573	485.52081	-1147.06372	-289.55215	476.68188	-1072.67029				-294.88260	76.42456	-1162.77478	
16	0.150																												-412.34750	1182.11523	-1174.46765	200.60004	961.49316	-1141.36646	-351.51056	1005.07086	-1010.49268	20.39197	928.18060	-1071.43054	-243.21547	950.79150	-1036.69629				72.17616	485.19406	-1146.67114	-290.03699	477.28317	-1072.19250				-294.89008	76.42179	-1162.77527	
17	0.160																												-412.62527	1181.94543	-1173.43384	200.43074	961.60608	-1141.17920	-351.43463	1005.03992	-1009.74219	19.81392	927.78131	-1070.89697	-243.25595	950.66260	-1036.74133				71.36475	485.38449	-1145.59839	-290.41046	477.04782	-1072.17212				-294.88605	76.41540	-1162.77380	
18	0.170																												-412.68805	1182.15674	-1172.30603	199.25752	961.64740	-1140.45093	-351.69678	1004.59308	-1009.68817	19.61778	927.57452	-1070.87402	-243.39827	951.02057	-1036.63330				70.97312	485.33121	-1145.65674	-290.75421	476.78296	-1071.90601				-294.37979	75.68759	-1162.69897	
19	0.180																												-412.96042	1182.10168	-1171.46313	199.15594	961.58527	-1140.43945	-351.78217	1003.97552	-1008.88159	19.20741	927.43982	-1070.88086	-243.43788	950.91760	-1036.67810				70.57793	485.16788	-1145.69202	-290.75537	476.78226	-1071.90649				-294.88333	76.40752	-1162.77222	
20	0.190																												-414.38593	1182.34570	-1170.57373	198.30458	961.77240	-1139.17871	-352.24606	1003.93115	-1008.20612	18.79818	927.23596	-1070.21973	-243.41827	951.04065	-1034.94153				70.70351	485.27917	-1145.44446	-291.47711	476.65402	-1071.01355				-294.38147	75.67375	-1162.69702	
21	0.200																												-414.02423	1182.34387	-1169.16101	198.06671	961.90381	-1139.11328	-351.98199	1003.78802	-1006.33527	19.07719	927.39789	-1069.76355	-243.98737	950.95081	-1035.27344				70.10288	484.97531	-1145.06628	-292.23505	476.72577	-1070.51196				-294.22882	75.92677	-1162.44385	
22	0.210																												-414.51263	1181.95959	-1167.97546	197.76376	962.16663	-1138.89978	-352.24310	1003.97217	-1006.27222	18.75605	927.31470	-1069.23511	-243.95543	950.61975	-1034.78748				70.05130	484.94312	-1145.08069	-292.93811	477.07233	-1070.47156				-294.21777	75.91055	-1162.43982	
23	0.220																												-414.68643	1182.16699	-1166.51929	196.53308	961.65765	-1138.40613	-352.37228	1003.90784	-1006.06726	18.94699	927.23309	-1069.12170	-243.78394	950.11694	-1032.90088				69.49129	484.67993	-1145.37097	-293.42657	477.06213	-1069.15332				-294.35934	75.64706	-1162.68994	
24	0.230																												-415.36273	1182.10437	-1165.44861	195.25461	961.25726	-1137.19836	-352.25024	1003.45288	-1004.21112	19.14270	927.24152	-1068.87708	-244.36101	949.34607	-1033.32776				68.99564	484.96243	-1145.51843	-293.71576	476.92490	-1068.90295				-294.20880	75.90362	-1162.43762	
25	0.240																												-416.78510	1182.86438	-1164.13684	194.95438	961.69611	-1136.42090	-352.26453	1003.35651	-1003.61694	18.24840	927.33441	-1067.70715	-244.39629	949.05670	-1032.35168				68.88161	484.91788	-1145.55823	-294.37933	477.11447	-1068.17224				-294.50781	75.54812	-1162.44421	
26	0.250																												-416.53845	1182.55115	-1162.82507	194.94440	961.58673	-1136.16016	-352.74142	1003.42181	-1002.51129	18.22846	927.31702	-1067.71069	-244.86340	948.45807	-1031.08325				68.72714	484.85233	-1145.61035	-294.88217	476.43295	-1067.69434				-294.33563	75.82163	-1162.19006	
27	0.260																												-417.22977	1182.60986	-1160.70374	194.83231	961.54773	-1136.16248	-352.50970	1003.25958	-1002.15735	18.30946	926.97076	-1066.93359	-244.96477	948.70331	-1030.30225				68.34985	484.94827	-1145.39758	-294.86795	476.56055	-1066.70190				-294.32388	75.80968	-1162.18665	
28	0.270																												-417.55554	1182.74390	-1159.45398	193.90829	961.59485	-1135.60815	-352.98770	1003.47931	-1000.76654	17.65380	926.80267	-1066.87915	-245.45668	948.37085	-1030.61047				67.84228	484.69241	-1145.46484	-295.68457	476.28864	-1066.65247				-294.52951	75.56606	-1162.21252	
29	0.280																												-418.21066	1183.05823	-1157.66333	192.68861	961.56769	-1134.79565	-352.71091	1002.99060	-999.20142	17.59300	926.89526	-1066.77344	-245.33983	948.69000	-1028.02002				67.22230	484.62662	-1145.94958	-295.86938	476.41989	-1065.99036				-294.51480	75.54801	-1162.20776	
30	0.290																												-418.58069	1183.17371	-1155.80322	192.07713	960.98224	-1134.16235	-352.58417	1002.47937	-998.02234	16.58033	926.47968	-1066.26123	-245.89145	949.59998	-1025.51501				66.63419	484.70160	-1146.30237	-296.63687	476.36285	-1065.36023				-294.49399	75.71297	-1161.73755	
31	0.300																												-419.24069	1183.70105	-1154.75647	191.30104	961.06427	-1133.11719	-352.84891	1002.45563	-997.26642	16.10821	926.20276	-1066.28027	-247.24721	949.42944	-1026.21387				65.78229	484.41333	-1146.66724	-297.38599	476.11835	-1064.16199				-294.46768	75.69669	-1161.73157	
32	0.310																												-420.17697	1183.44800	-1152.15015	191.06161	961.19751	-1133.09058	-353.09479	1002.44214	-995.78894	16.05541	926.20105	-1066.10376	-247.74297	949.22534	-1026.51172				65.13589	484.44916	-1147.12073	-297.65045	475.72382	-1062.91858				-294.52783	75.78956	-1161.21118	
33	0.320																												-421.24564	1183.78296	-1150.34717	189.99094	961.86908	-1132.86157	-353.52310	1002.31451	-993.80005	14.54148	925.32117	-1065.23254	-248.20271	949.51379	-1023.43555				64.10539	484.59079	-1146.90808	-298.05826	475.67172	-1062.94983				-294.74060	75.46936	-1161.40747	
34	0.330																												-421.97580	1184.25073	-1148.39087	188.82407	961.05444	-1132.28210	-353.65765	1002.29956	-992.56189	14.18337	924.84161	-1065.19800	-248.69658	948.81201	-1023.44958				63.66615	484.51065	-1146.99365	-298.24380	474.76599	-1062.27319				-294.72018	75.42819	-1161.39832	
35	0.340																												-422.41995	1184.47168	-1146.46887	188.02745	960.69098	-1131.53760	-353.69559	1002.05341	-991.29883	12.76725	924.18585	-1065.47205	-248.93869	948.74194	-1022.16449				62.69154	484.38736	-1147.44153	-298.80704	475.12607	-1061.23108				-294.59048	75.78429	-1160.73901	
36	0.350																												-423.76089	1184.43591	-1143.51563	186.81277	960.72583	-1131.50659	-354.65118	1002.54651	-989.95447	11.73363	923.69318	-1065.63232	-249.27106	948.46204	-1022.55707				61.99354	484.06281	-1147.71606	-299.01929	475.23212	-1059.96045				-294.81354	75.43478	-1160.91040	
